<svg xmlns="http://www.w3.org/2000/svg" viewBox="0 0 24 24"><path fill="#5865f2" d="M19.5 5.3A16 16 0 0 0 15.6 4l-.5 1a14 14 0 0 0-6.2 0l-.5-1a16 16 0 0 0-3.9 1.3C2 9 1.4 12.6 1.7 16.2A16 16 0 0 0 6.5 18.6l1-1.6a10 10 0 0 1-1.6-.8l.4-.3a11.5 11.5 0 0 0 11.4 0l.4.3a10 10 0 0 1-1.6.8l1 1.6a16 16 0 0 0 4.8-2.4c.4-4.2-.6-7.8-2.8-10.9Z"/><path fill="#fff" d="M8.6 14.1c-.8 0-1.4-.7-1.4-1.6s.6-1.6 1.4-1.6 1.4.7 1.4 1.6-.6 1.6-1.4 1.6Zm6.8 0c-.8 0-1.4-.7-1.4-1.6s.6-1.6 1.4-1.6 1.4.7 1.4 1.6-.6 1.6-1.4 1.6Z"/></svg>